<?xml version="1.0" standalone="no"?>
<!DOCTYPE svg PUBLIC "-//W3C//DTD SVG 20010904//EN"
 "http://www.w3.org/TR/2001/REC-SVG-20010904/DTD/svg10.dtd">
<svg version="1.0" xmlns="http://www.w3.org/2000/svg"
 width="900.000000pt" height="900.000000pt" viewBox="0 0 900.000000 900.000000"
 preserveAspectRatio="xMidYMid meet">
<metadata>
Created by potrace 1.14, written by Peter Selinger 2001-2017
</metadata>
<g transform="translate(0.000000,900.000000) scale(0.100000,-0.100000)"
fill="#000000" stroke="none">
<path d="M0 8680 c0 -201 4 -320 10 -320 20 0 229 -139 289 -193 17 -15 34
-27 38 -27 15 0 147 -112 173 -146 34 -45 67 -59 89 -40 29 26 151 -5 151 -38
0 -8 10 -27 23 -43 12 -15 28 -41 35 -56 6 -15 19 -30 27 -32 8 -3 23 -8 33
-11 9 -4 27 -6 39 -5 11 1 24 -3 28 -8 3 -6 25 -11 48 -11 23 0 67 -9 97 -21
30 -11 82 -25 115 -30 70 -10 84 -13 190 -33 44 -8 105 -16 137 -17 32 -1 58
-7 58 -12 0 -5 7 -4 16 4 13 10 17 10 24 0 4 -8 16 -11 29 -6 16 5 21 2 21
-12 0 -14 2 -15 9 -4 5 8 16 11 29 7 l21 -7 -22 -47 c-49 -107 -113 -194 -181
-249 -18 -15 -60 -17 -51 -3 3 6 0 10 -7 11 -7 0 -20 2 -28 4 -8 2 -26 5 -40
8 -14 3 -47 11 -75 17 -27 7 -67 14 -87 17 -21 3 -38 10 -38 15 0 7 -15 8 -39
4 -24 -4 -41 -2 -43 5 -2 6 -37 14 -77 20 -41 5 -80 14 -88 20 -9 8 -67 13
-165 14 -128 1 -153 4 -163 18 -7 9 -17 17 -22 17 -12 0 -53 47 -53 60 0 5
-11 17 -25 26 -14 9 -25 24 -25 34 0 29 -26 42 -69 36 -34 -4 -48 0 -92 29
-28 19 -55 35 -59 35 -9 0 -50 33 -85 68 -12 12 -26 22 -30 22 -9 0 -129 100
-133 111 -2 5 -10 9 -18 9 -12 0 -14 -231 -14 -1637 l0 -1638 43 -17 c23 -9
60 -20 82 -23 163 -26 275 -89 291 -163 5 -20 8 -135 9 -255 0 -133 4 -220 10
-225 25 -18 46 -75 48 -131 1 -51 -2 -64 -23 -86 -13 -14 -19 -25 -15 -25 5 0
0 -7 -11 -15 -15 -10 -40 -13 -80 -11 -50 3 -81 15 -206 79 l-148 76 0 -73 0
-73 66 -23 c36 -12 129 -53 206 -92 135 -68 141 -70 197 -65 69 6 151 -13 180
-42 24 -24 58 -27 83 -8 11 9 17 29 18 63 2 97 -10 270 -21 312 -7 24 -9 66
-6 95 4 29 2 79 -4 112 -11 56 -16 195 -17 484 -1 118 1 126 24 154 13 16 24
32 24 36 0 5 17 11 37 14 21 4 58 11 83 16 32 7 64 6 108 -4 34 -7 62 -9 62
-4 0 15 37 10 50 -6 15 -19 30 -19 30 -2 0 8 -18 20 -40 27 -22 7 -40 17 -40
22 0 4 -6 8 -14 8 -7 0 -21 11 -30 25 -9 14 -22 25 -29 25 -7 0 -26 18 -43 39
-16 22 -38 42 -49 45 -11 3 -33 18 -50 34 -16 16 -42 36 -57 46 -16 10 -28 27
-28 37 0 10 -7 22 -15 26 -19 11 -38 114 -30 162 10 60 43 93 97 97 26 2 50 0
53 -6 3 -5 16 -10 29 -10 12 0 26 -4 32 -9 5 -5 44 -19 88 -30 65 -17 86 -19
125 -10 117 27 222 7 306 -57 22 -17 35 -22 35 -13 0 24 56 -65 70 -111 28
-94 55 -96 47 -4 -7 71 4 107 28 98 8 -4 15 -2 15 4 0 5 12 12 27 15 34 6 48
-8 108 -108 68 -114 177 -255 197 -255 14 0 9 34 -12 75 -36 70 -61 197 -42
209 14 9 67 -48 95 -104 26 -51 45 -84 107 -198 22 -39 23 -47 13 -100 -11
-57 -27 -121 -58 -222 -33 -111 -37 -126 -42 -180 -2 -30 -11 -100 -19 -155
-40 -271 -41 -615 -2 -800 38 -185 107 -384 153 -447 17 -23 17 -22 12 17 -3
22 -15 96 -27 165 -36 203 -30 582 12 753 5 21 13 35 17 33 4 -3 11 -48 15
-100 10 -151 51 -325 102 -443 8 -17 14 -34 14 -37 0 -25 79 -165 127 -226 79
-99 81 -103 94 -211 10 -81 9 -105 -5 -169 -10 -41 -21 -106 -26 -145 -23
-188 -101 -506 -183 -754 -16 -48 -31 -71 -60 -94 -25 -21 -34 -34 -27 -41 6
-6 10 -77 10 -177 0 -92 5 -191 11 -221 39 -191 79 -305 155 -445 24 -44 44
-88 44 -96 0 -8 -11 -40 -25 -71 -23 -52 -45 -70 -60 -46 -4 6 -10 8 -15 5 -5
-3 -1 -19 8 -35 l17 -29 -106 -206 c-58 -114 -110 -208 -115 -208 -5 -1 -11
76 -14 178 l-5 180 -7 -150 c-5 -82 -11 -194 -14 -247 l-7 -98 291 0 c161 0
291 3 291 8 -1 4 -1 19 0 34 1 34 18 29 46 -12 17 -25 45 -41 45 -26 0 3 -23
35 -50 71 l-50 66 0 125 c0 68 2 124 4 124 2 0 38 -51 79 -113 41 -63 106
-150 143 -195 l69 -81 155 0 155 0 -34 27 c-68 54 -275 259 -340 337 -76 90
-152 189 -195 252 l-28 42 15 83 c9 46 25 133 37 193 48 247 116 632 151 852
10 68 21 133 24 145 6 24 17 29 270 146 95 43 188 90 284 141 19 11 21 15 10
21 -15 9 -49 4 -199 -30 -152 -33 -274 -52 -324 -48 l-49 3 -34 100 c-19 55
-40 123 -48 150 -7 28 -43 149 -80 270 -36 121 -77 257 -91 302 -25 86 -50
117 -103 130 -37 8 -79 31 -102 54 -14 14 -19 33 -19 77 0 130 -102 828 -131
899 -7 18 -10 35 -7 38 3 4 35 13 69 21 85 20 183 56 241 89 55 30 65 42 50
57 -8 8 -15 3 -23 -15 -7 -15 -18 -27 -24 -27 -21 0 -65 164 -81 295 -32 274
-31 649 2 745 9 24 31 -26 50 -111 9 -41 23 -86 30 -101 23 -44 18 -83 -11
-96 -24 -11 -25 -15 -25 -109 1 -155 31 -472 43 -443 3 8 8 80 10 160 4 113 9
156 25 194 23 57 18 69 48 -112 15 -90 21 -108 47 -133 27 -27 31 -28 46 -15
25 23 41 2 41 -51 0 -30 4 -43 14 -43 8 0 25 -16 37 -37 l23 -36 28 34 c31 37
78 129 78 153 0 8 4 18 10 21 36 22 140 477 171 748 31 264 38 -56 14 -573 -8
-173 -17 -327 -20 -342 -11 -49 12 -37 38 20 32 71 77 187 77 201 0 5 11 45
24 88 36 116 66 237 66 267 0 20 7 29 28 37 40 16 258 30 327 22 l60 -7 -50
-9 c-62 -10 -72 -19 -107 -92 -35 -75 -36 -108 -4 -123 31 -14 43 -64 23 -96
-8 -12 -30 -27 -49 -32 l-33 -10 -3 -104 c-4 -105 15 -330 28 -330 3 0 7 28 8
61 2 87 19 164 53 234 59 122 73 122 82 -3 7 -91 31 -176 57 -202 16 -16 24
-18 44 -8 33 14 52 58 61 136 5 42 11 60 17 54 14 -14 37 -127 38 -182 0 -26
7 -56 16 -69 16 -22 17 -23 27 -5 19 33 21 250 3 343 -9 46 -16 88 -16 94 0
19 47 -33 70 -79 13 -24 26 -44 29 -44 4 0 5 92 3 205 -4 175 -2 205 10 205
14 0 148 -131 239 -235 24 -27 49 -54 55 -60 6 -5 24 -27 39 -48 23 -31 27
-43 21 -77 -7 -47 -47 -155 -83 -223 -35 -68 -24 -76 27 -20 112 121 177 199
203 239 16 27 34 44 46 44 13 0 49 -39 108 -116 131 -173 140 -186 147 -226 7
-36 -16 -370 -35 -523 -6 -44 -14 -114 -19 -155 -14 -121 -39 -268 -61 -370
-12 -52 -25 -115 -30 -140 -4 -25 -22 -88 -39 -140 -50 -154 -79 -252 -90
-304 -6 -26 -17 -61 -25 -77 -37 -70 -5 -90 61 -38 105 83 254 249 254 284 0
7 4 15 8 17 8 3 42 72 69 141 9 23 22 51 30 62 13 19 13 19 13 -2 0 -12 -9
-66 -19 -120 -11 -54 -24 -136 -31 -183 -6 -47 -18 -124 -27 -173 -9 -48 -13
-91 -9 -94 4 -4 23 -1 42 6 66 24 65 30 75 -395 5 -209 13 -433 19 -499 17
-214 29 -338 44 -465 15 -116 23 -253 30 -510 4 -147 -12 -316 -35 -362 -23
-46 -24 -58 -3 -58 15 0 16 -12 9 -105 l-7 -105 192 0 192 0 -5 23 c-3 12 -9
49 -12 82 -9 77 -49 281 -81 415 -16 66 -24 122 -21 152 3 37 1 47 -13 51 -11
3 -25 32 -41 88 -30 104 -30 202 1 439 11 91 25 199 30 240 17 142 41 315 50
360 5 25 19 120 31 213 12 92 26 167 31 167 4 0 8 -9 8 -19 0 -11 4 -22 9 -25
4 -3 14 -27 21 -53 23 -88 42 -143 51 -149 5 -3 9 -11 9 -19 0 -7 18 -44 40
-83 l40 -69 0 -250 c0 -198 -3 -259 -15 -293 -8 -24 -14 -45 -12 -47 7 -7 65
134 81 195 20 79 20 93 1 86 -13 -5 -15 15 -15 142 0 140 -12 269 -24 282 -4
3 -12 -2 -19 -11 -13 -17 -22 -2 -75 123 -60 140 -74 201 -73 320 2 122 12
188 31 200 18 11 49 0 61 -22 8 -14 17 -18 33 -14 21 5 89 -16 163 -49 17 -8
36 -15 41 -15 9 0 182 -147 207 -176 6 -6 39 -37 75 -69 36 -32 110 -100 165
-151 55 -50 147 -132 205 -180 58 -49 116 -99 130 -112 49 -45 241 -176 408
-277 25 -16 31 -25 27 -43 -3 -12 -7 -34 -10 -50 -5 -27 -5 -27 8 3 22 54 59
105 74 105 8 0 45 -20 82 -43 36 -24 89 -55 116 -69 28 -14 79 -46 115 -72 36
-25 85 -58 109 -74 81 -51 216 -155 269 -207 52 -53 68 -84 35 -70 -43 18 -51
16 -76 -17 -25 -34 -88 -182 -112 -266 -20 -72 -48 -222 -42 -229 3 -3 9 12
13 33 9 51 23 79 98 188 35 50 78 117 96 149 18 32 38 61 45 64 21 7 55 -16
55 -38 0 -15 5 -19 19 -14 26 8 72 -33 123 -112 l43 -64 7 118 c3 65 10 243
14 396 3 152 11 277 15 277 5 0 9 -7 9 -15 0 -8 13 -72 30 -142 116 -506 182
-1013 150 -1164 -7 -33 -10 -62 -7 -65 5 -5 137 158 137 171 0 4 16 31 35 60
37 55 85 144 85 158 0 4 9 26 19 50 37 81 100 318 135 507 24 130 22 511 -3
647 -34 176 -103 332 -185 415 -143 145 -391 459 -475 603 -101 171 -101 172
-65 335 9 41 18 136 21 211 5 140 -2 182 -42 258 -15 29 -103 121 -116 121 -4
0 -14 6 -21 13 -7 7 -38 29 -68 49 -92 60 -216 194 -267 288 -30 55 -50 153
-73 355 -7 55 -16 119 -21 142 -5 23 -9 64 -9 90 0 27 -6 100 -14 163 -8 63
-20 185 -26 270 -6 85 -15 196 -20 247 -6 50 -10 120 -11 155 0 58 -16 132
-18 85 -1 -10 -8 -25 -16 -33 -13 -14 -15 -8 -15 48 0 38 4 58 9 50 7 -11 10
-10 15 3 10 26 7 228 -4 245 -7 10 -10 -24 -10 -105 -1 -150 -13 -129 -40 74
-10 80 -26 196 -34 257 -16 112 -58 347 -75 413 -5 20 -17 70 -26 111 -33 142
-55 199 -102 255 -50 62 -123 105 -176 105 -48 0 -66 23 -41 51 30 34 137 107
167 114 15 4 30 11 33 16 3 5 30 9 59 9 49 0 58 -4 90 -35 19 -20 35 -42 35
-50 0 -8 5 -15 10 -15 26 0 -2 76 -51 139 -11 13 -19 29 -19 35 0 13 -52 151
-79 211 -10 22 -24 57 -30 78 -7 20 -17 37 -22 37 -5 0 -9 11 -9 25 0 14 -7
28 -15 31 -8 4 -15 17 -15 29 0 13 -3 25 -7 27 -5 2 -28 45 -53 96 -24 50 -47
92 -50 92 -3 0 -17 22 -31 50 -13 27 -27 50 -31 50 -4 0 -16 17 -27 38 -11 21
-27 44 -35 51 -9 8 -16 20 -16 29 0 8 -16 32 -35 53 -19 22 -35 44 -35 49 0 6
-7 10 -15 10 -8 0 -15 5 -15 11 0 19 -70 99 -86 99 -8 0 -14 9 -14 19 0 17
-29 50 -100 116 -6 6 -21 21 -34 35 -12 14 -44 43 -70 65 -26 22 -66 57 -89
77 -23 21 -54 43 -69 49 -15 6 -25 15 -22 20 3 5 -2 9 -12 9 -9 0 -27 10 -39
23 -31 29 -53 47 -60 47 -4 0 -26 14 -50 30 -24 17 -51 30 -59 30 -9 0 -16 4
-16 8 0 7 -54 34 -170 84 -25 11 -56 26 -70 33 -22 11 -92 34 -195 64 -65 20
-165 42 -201 45 -22 2 -57 9 -79 15 -44 13 -939 12 -985 -2 -14 -4 -77 -12
-140 -18 -152 -14 -555 -83 -574 -98 -6 -5 -38 -18 -71 -30 -33 -12 -78 -30
-100 -41 -22 -11 -89 -40 -149 -66 -61 -25 -126 -56 -145 -68 -20 -12 -50 -28
-67 -35 -18 -7 -40 -20 -50 -29 -11 -9 -39 -30 -64 -47 -25 -16 -47 -33 -50
-36 -3 -3 -12 -8 -20 -11 -25 -9 -179 -140 -271 -229 -48 -46 -119 -124 -158
-174 -39 -49 -83 -105 -98 -124 -47 -58 -100 -136 -123 -176 -12 -22 -37 -67
-56 -100 -33 -59 -77 -148 -136 -275 -47 -101 -55 -121 -108 -265 -13 -33 -37
-98 -55 -145 -18 -47 -36 -94 -40 -105 -13 -35 -17 2 -6 52 11 52 44 169 54
193 11 26 12 59 2 60 -11 2 -54 -123 -55 -158 0 -12 -4 -30 -9 -40 -11 -22
-45 -145 -66 -237 -48 -218 -71 -404 -85 -670 -6 -121 -15 -267 -19 -325 -4
-58 -7 -197 -6 -310 1 -113 -2 -214 -6 -225 -7 -17 -8 -16 -8 7 -1 15 -8 57
-17 95 -74 316 -85 839 -25 1198 32 191 135 583 191 725 9 25 23 63 30 85 27
86 172 378 253 510 116 187 250 359 406 517 109 111 138 137 271 242 54 43
241 164 330 214 25 14 47 28 50 32 3 3 18 11 33 18 15 7 26 16 23 20 -5 9 -83
7 -107 -3 -10 -3 -25 -5 -35 -3 -13 2 -19 -3 -18 -14 1 -10 -2 -18 -6 -18 -10
0 -23 50 -15 58 3 3 5 0 5 -6 0 -7 5 -12 10 -12 25 0 7 31 -20 37 -17 3 -35
14 -41 24 -9 18 -53 19 -1419 19 l-1410 0 0 -320z m6706 -858 c34 -22 71 -280
43 -298 -16 -10 -43 29 -58 84 -22 79 -39 166 -35 179 2 7 6 20 9 28 5 16 23
19 41 7z m-524 -184 c11 -13 24 -32 29 -43 13 -28 33 -60 46 -76 20 -26 83
-150 83 -164 0 -35 -21 -9 -72 86 -29 56 -59 113 -67 128 -8 14 -20 31 -28 36
-13 10 -27 55 -16 55 3 0 15 -10 25 -22z m-4509 -245 c-15 -32 -31 -59 -35
-61 -5 -2 -8 -9 -8 -17 0 -7 -7 -18 -15 -25 -40 -33 -2 66 52 138 36 48 39 33
6 -35z m3430 -125 c40 -123 71 -262 63 -283 -6 -17 -7 -17 -26 0 -11 10 -20
24 -20 32 0 7 -6 24 -14 36 -26 40 -74 252 -63 280 14 36 34 15 60 -65z
m-3096 10 c-3 -7 -5 -2 -5 12 0 14 2 19 5 13 2 -7 2 -19 0 -25z m279 -5 c-3
-16 -8 -47 -11 -70 -4 -23 -13 -47 -21 -54 -16 -13 -17 -7 -5 41 5 19 12 52
16 73 3 20 11 37 16 37 6 0 8 -12 5 -27z m624 -13 c8 -15 8 -43 0 -102 -7 -46
-13 -86 -16 -89 -2 -4 -11 -72 -19 -150 -8 -79 -19 -147 -24 -152 -36 -36 -50
271 -18 398 27 104 54 138 77 95z m1374 -295 c3 -27 7 -68 11 -90 4 -29 0 -22
-14 23 -10 34 -19 88 -19 120 0 49 1 53 9 27 5 -16 11 -52 13 -80z m-764 -752
c0 -44 39 -268 71 -413 43 -191 56 -239 100 -380 22 -68 37 -131 34 -138 -4
-12 -19 -14 -65 -9 -59 5 -62 4 -128 -41 -37 -25 -78 -56 -92 -69 -22 -21 -26
-22 -37 -7 -8 10 -8 25 -2 47 22 76 73 569 84 812 7 156 15 225 26 225 5 0 9
-12 9 -27z m542 -88 c3 -14 2 -25 -2 -25 -4 0 -10 11 -12 25 -3 14 -2 25 2 25
4 0 10 -11 12 -25z m19 -112 c6 -16 19 -66 29 -113 40 -178 107 -384 174 -535
12 -27 38 -88 57 -135 19 -47 57 -132 86 -190 29 -57 50 -107 47 -109 -7 -8
-254 241 -264 267 -8 19 -17 22 -69 22 -71 0 -81 11 -81 89 0 64 7 80 31 74
10 -3 19 0 19 6 0 6 -8 11 -19 11 -32 0 -39 47 -45 292 -6 312 3 402 35 321z
m-266 -943 c3 -6 -1 -7 -9 -4 -18 7 -21 14 -7 14 6 0 13 -4 16 -10z m105 -365
c0 -25 -45 -75 -68 -75 -31 0 -21 70 15 106 20 20 53 1 53 -31z m2157 -28 c84
-124 115 -239 114 -429 l0 -136 -47 -124 c-40 -106 -117 -266 -180 -375 -11
-18 -25 -33 -32 -33 -14 0 -13 15 9 190 11 80 39 160 57 160 16 0 52 79 51
111 -1 34 -1 34 -15 -11 -8 -25 -26 -58 -40 -75 l-26 -30 7 115 c11 190 16
213 36 164 6 -16 15 -38 20 -49 4 -11 10 -31 13 -45 3 -14 4 1 2 32 -1 33 -9
65 -18 75 -29 36 -37 93 -29 221 5 67 10 125 13 127 7 7 33 -24 56 -68 15 -29
21 -34 24 -20 4 19 -20 66 -50 99 -29 31 -42 60 -42 94 0 32 15 70 28 70 4 0
26 -28 49 -63z m-2860 -64 c-3 -10 -5 -4 -5 12 0 17 2 24 5 18 2 -7 2 -21 0
-30z m4358 -833 c3 -5 -1 -10 -10 -10 -9 0 -13 5 -10 10 3 6 8 10 10 10 2 0 7
-4 10 -10z m35 -22 c0 -16 -3 -19 -11 -11 -6 6 -8 16 -5 22 11 17 16 13 16
-11z m33 -25 c-7 -3 -9 -12 -6 -21 6 -15 4 -15 -10 -4 -13 11 -14 17 -4 27 7
7 16 10 22 7 5 -3 4 -7 -2 -9z m74 -63 c13 -16 34 -30 44 -30 13 0 19 -6 17
-17 -2 -12 3 -17 14 -15 12 2 15 -3 11 -18 -6 -22 7 -26 25 -8 9 9 13 7 18 -5
3 -9 12 -17 20 -17 8 0 14 -4 14 -8 0 -5 11 -15 25 -22 14 -7 25 -19 25 -25 0
-7 9 -24 20 -38 21 -26 27 -67 11 -67 -5 0 -11 10 -13 23 -2 12 -7 22 -13 22
-22 2 -55 17 -55 26 0 5 -10 9 -22 10 -13 0 -17 3 -10 6 6 2 12 13 12 23 0 14
-9 20 -37 22 -26 2 -38 8 -38 18 0 18 -25 50 -40 50 -5 0 -23 14 -38 30 -28
28 -28 28 -5 23 22 -6 22 -6 6 10 -9 9 -23 17 -32 17 -8 0 -18 5 -21 10 -15
24 39 7 62 -20z m-3054 -1037 c-7 -2 -13 -12 -13 -20 0 -9 -3 -14 -6 -10 -10
10 4 37 18 36 10 0 10 -2 1 -6z m3412 -27 c17 -17 7 -30 -12 -15 -13 12 -18
29 -7 29 3 0 12 -6 19 -14z m26 -67 c-9 -23 -10 -22 -10 11 -1 23 2 31 9 24 7
-7 7 -19 1 -35z m29 -49 c0 -5 -2 -10 -4 -10 -3 0 -8 5 -11 10 -3 6 -1 10 4
10 6 0 11 -4 11 -10z m78 -69 c7 -13 11 -29 9 -35 -2 -6 -9 -1 -16 12 -9 18
-16 21 -26 12 -10 -8 -13 -6 -11 13 1 31 27 30 44 -2z m42 -53 c0 -7 -4 -19
-9 -27 -11 -17 -23 1 -15 23 7 19 24 21 24 4z m70 -83 c0 4 2 6 5 3 3 -3 3
-13 -1 -22 -6 -16 -8 -16 -25 0 -11 9 -19 23 -19 31 0 8 -4 11 -10 8 -5 -3
-10 0 -10 8 0 28 14 26 37 -5 12 -18 23 -28 23 -23z m58 -80 c-3 -3 -9 2 -12
12 -6 14 -5 15 5 6 7 -7 10 -15 7 -18z m28 -32 c0 -9 10 -23 24 -29 13 -7 27
-20 30 -29 3 -9 9 -16 14 -15 8 1 35 -30 36 -41 0 -4 -7 -9 -14 -12 -10 -4
-13 -1 -9 9 3 7 1 14 -4 14 -14 0 -73 57 -66 64 4 3 1 6 -5 6 -16 0 -43 30
-37 41 10 16 33 10 31 -8z m34 -13 c0 -5 -2 -10 -4 -10 -3 0 -8 5 -11 10 -3 6
-1 10 4 10 6 0 11 -4 11 -10z m103 -130 c3 -11 6 -24 7 -27 1 -4 -3 -9 -9 -11
-6 -2 -8 3 -5 11 3 8 1 18 -5 22 -13 8 -14 25 -2 25 5 0 11 -9 14 -20z m-33
-10 c0 -5 -5 -10 -11 -10 -5 0 -7 5 -4 10 3 6 8 10 11 10 2 0 4 -4 4 -10z m80
-50 c0 -5 -4 -10 -10 -10 -5 0 -10 5 -10 10 0 6 5 10 10 10 6 0 10 -4 10 -10z
m-5982 -510 c2 -255 -1 -363 -10 -385 -29 -75 -80 -175 -88 -175 -17 0 -100
191 -123 284 -19 78 -22 118 -22 276 0 232 9 271 69 299 114 53 133 60 151 58
20 -2 20 -10 23 -357z"/>
<path d="M3278 8993 c6 -2 18 -2 25 0 6 3 1 5 -13 5 -14 0 -19 -2 -12 -5z"/>
<path d="M5815 8979 c22 -12 47 -27 55 -34 8 -6 35 -23 60 -36 25 -13 51 -30
58 -36 16 -16 32 -17 32 -3 0 6 -11 15 -25 20 -13 5 -35 21 -47 35 -13 15 -39
33 -58 41 -19 9 -43 20 -52 25 -10 5 -28 9 -40 9 -18 0 -14 -4 17 -21z"/>
<path d="M3113 8943 c9 -2 25 -2 35 0 9 3 1 5 -18 5 -19 0 -27 -2 -17 -5z"/>
<path d="M6030 8854 c0 -10 28 -34 39 -34 6 0 11 -4 11 -10 0 -5 7 -10 15 -10
8 0 15 -4 15 -10 0 -5 7 -10 15 -10 12 0 11 4 -5 20 -11 11 -22 20 -25 20 -3
0 -15 9 -27 20 -21 19 -38 26 -38 14z"/>
<path d="M6810 8101 c0 -6 4 -13 10 -16 6 -3 7 1 4 9 -7 18 -14 21 -14 7z"/>
<path d="M7101 7624 c0 -11 3 -14 6 -6 3 7 2 16 -1 19 -3 4 -6 -2 -5 -13z"/>
<path d="M7191 7414 c0 -11 3 -14 6 -6 3 7 2 16 -1 19 -3 4 -6 -2 -5 -13z"/>
<path d="M7252 7225 c0 -16 2 -22 5 -12 2 9 2 23 0 30 -3 6 -5 -1 -5 -18z"/>
<path d="M7274 7045 c-5 -13 12 -79 37 -140 13 -33 11 72 -3 116 -12 41 -25
49 -34 24z"/>
<path d="M7210 6933 c0 -23 5 -45 10 -48 13 -8 13 55 0 75 -7 11 -10 4 -10
-27z"/>
<path d="M7232 6835 c0 -16 2 -22 5 -12 2 9 2 23 0 30 -3 6 -5 -1 -5 -18z"/>
<path d="M7327 6780 c-10 -77 -9 -130 3 -130 16 0 23 67 13 128 l-9 57 -7 -55z"/>
<path d="M7245 6700 c3 -52 7 -111 9 -130 2 -19 7 -111 11 -203 4 -92 12 -170
16 -173 5 -3 9 5 9 18 0 13 7 50 15 83 22 81 20 133 -4 182 -26 52 -26 69 -1
116 11 20 16 37 10 37 -5 0 -10 -6 -10 -13 0 -7 -9 -13 -19 -14 -18 -2 -20 5
-20 70 1 40 -4 83 -10 97 -9 19 -10 4 -6 -70z m55 -317 c0 -48 -3 -64 -10 -53
-13 20 -13 120 0 120 6 0 10 -29 10 -67z"/>
<path d="M2737 4463 c-10 -19 -17 -63 -9 -63 17 0 44 39 39 55 -7 16 -23 20
-30 8z"/>
<path d="M3795 4040 c3 -5 11 -10 16 -10 6 0 7 5 4 10 -3 6 -11 10 -16 10 -6
0 -7 -4 -4 -10z"/>
<path d="M3148 3043 c6 -2 18 -2 25 0 6 3 1 5 -13 5 -14 0 -19 -2 -12 -5z"/>
<path d="M2845 3020 c-4 -6 5 -10 20 -10 15 0 24 4 20 10 -3 6 -12 10 -20 10
-8 0 -17 -4 -20 -10z"/>
<path d="M5735 2260 c-10 -16 15 -270 27 -270 12 0 3 259 -10 272 -6 6 -12 6
-17 -2z"/>
<path d="M3860 2242 c0 -17 30 -75 36 -69 3 3 -4 22 -15 44 -11 21 -20 32 -21
25z"/>
<path d="M3921 2148 c-1 -19 28 -100 39 -108 4 -3 11 -18 15 -35 6 -24 9 -26
13 -11 4 17 -34 114 -49 126 -4 3 -9 14 -12 25 -4 16 -5 16 -6 3z"/>
<path d="M4001 1955 c0 -11 4 -29 9 -40 8 -18 9 -18 9 5 0 14 -4 32 -9 40 -8
12 -10 12 -9 -5z"/>
<path d="M3852 1923 c-6 -21 -13 -51 -16 -68 -2 -16 -13 -78 -25 -137 -37
-193 -53 -381 -49 -560 2 -104 8 -172 14 -178 9 -9 12 6 12 52 0 83 38 272 64
323 11 20 38 112 38 130 0 17 -37 -58 -44 -90 -9 -40 -29 -85 -37 -85 -4 0 -9
6 -12 14 -11 27 28 322 63 485 21 101 25 151 12 151 -5 0 -14 -17 -20 -37z"/>
<path d="M4030 1854 c0 -16 -4 -34 -8 -39 -14 -17 -33 -85 -27 -95 3 -5 0 -7
-7 -5 -9 4 -19 -8 -27 -32 -8 -21 -24 -60 -37 -87 -13 -28 -24 -57 -23 -65 0
-13 2 -14 6 -1 3 8 14 23 24 34 10 11 22 34 25 52 3 18 17 47 30 65 13 18 24
43 24 56 0 24 32 63 51 63 12 0 3 36 -17 65 -13 18 -14 18 -14 -11z"/>
<path d="M4071 1774 c0 -11 3 -14 6 -6 3 7 2 16 -1 19 -3 4 -6 -2 -5 -13z"/>
<path d="M5748 1663 c-10 -32 -18 -72 -17 -88 l1 -30 8 30 c22 77 31 119 28
133 -2 8 -11 -12 -20 -45z"/>
<path d="M2102 1595 c-7 -14 -12 -33 -12 -41 0 -23 -28 -80 -71 -147 -44 -66
-74 -126 -67 -133 3 -2 31 34 63 81 31 47 61 85 66 85 5 0 9 -18 9 -39 0 -22
4 -42 9 -45 7 -5 24 254 17 261 -2 2 -8 -8 -14 -22z"/>
<path d="M4120 1351 c0 -67 4 -111 10 -111 6 0 10 41 10 104 0 59 -4 108 -10
111 -6 4 -10 -33 -10 -104z"/>
<path d="M1926 1243 c-6 -14 -5 -15 5 -6 7 7 10 15 7 18 -3 3 -9 -2 -12 -12z"/>
<path d="M5606 1201 c-4 -7 -5 -15 -2 -18 9 -9 19 4 14 18 -4 11 -6 11 -12 0z"/>
<path d="M6952 1155 c0 -16 2 -22 5 -12 2 9 2 23 0 30 -3 6 -5 -1 -5 -18z"/>
<path d="M5578 1128 c-29 -71 -30 -78 -22 -78 12 0 46 86 42 105 -2 8 -11 -4
-20 -27z"/>
<path d="M6931 1084 c0 -11 3 -14 6 -6 3 7 2 16 -1 19 -3 4 -6 -2 -5 -13z"/>
<path d="M2130 1043 c0 -13 5 -23 10 -23 13 0 13 11 0 30 -8 12 -10 11 -10 -7z"/>
<path d="M6891 965 c-1 -11 -4 -31 -7 -45 -5 -22 -4 -23 6 -7 6 10 9 30 7 45
-3 18 -5 20 -6 7z"/>
<path d="M6872 870 c0 -14 2 -19 5 -12 2 6 2 18 0 25 -3 6 -5 1 -5 -13z"/>
<path d="M2191 864 c0 -11 3 -14 6 -6 3 7 2 16 -1 19 -3 4 -6 -2 -5 -13z"/>
<path d="M5460 859 c0 -5 5 -7 10 -4 6 3 10 8 10 11 0 2 -4 4 -10 4 -5 0 -10
-5 -10 -11z"/>
<path d="M3801 824 c0 -11 3 -14 6 -6 3 7 2 16 -1 19 -3 4 -6 -2 -5 -13z"/>
<path d="M2220 797 c0 -8 11 -35 25 -58 14 -24 25 -37 25 -28 0 8 -7 24 -15
35 -8 10 -15 27 -15 36 0 21 -20 35 -20 15z"/>
<path d="M3818 775 c-6 -6 9 -86 18 -94 2 -2 4 19 4 47 0 47 -7 62 -22 47z"/>
<path d="M6833 739 c-7 -26 -15 -54 -19 -63 -3 -9 -1 -16 5 -16 6 0 11 10 11
23 0 13 5 28 11 34 6 6 9 23 7 39 -3 26 -4 24 -15 -17z"/>
<path d="M4366 721 c5 -5 32 -12 59 -16 48 -6 49 -5 25 9 -27 17 -101 22 -84
7z"/>
<path d="M7870 700 c0 -11 2 -20 4 -20 2 0 6 9 9 20 3 11 1 20 -4 20 -5 0 -9
-9 -9 -20z"/>
<path d="M2280 690 c1 -16 27 -56 34 -49 2 2 -5 18 -15 34 -11 17 -19 23 -19
15z"/>
<path d="M4588 673 c6 -2 18 -2 25 0 6 3 1 5 -13 5 -14 0 -19 -2 -12 -5z"/>
<path d="M7847 653 c-4 -3 -7 -11 -7 -17 0 -6 5 -5 12 2 6 6 9 14 7 17 -3 3
-9 2 -12 -2z"/>
<path d="M6803 600 c0 -25 2 -35 4 -22 2 12 2 32 0 45 -2 12 -4 2 -4 -23z"/>
<path d="M3841 620 c0 -8 4 -22 9 -30 12 -18 12 -2 0 25 -6 13 -9 15 -9 5z"/>
<path d="M4871 606 c2 -2 24 -6 48 -9 29 -4 40 -2 30 4 -13 8 -88 14 -78 5z"/>
<path d="M7815 600 c-3 -5 -1 -10 4 -10 6 0 11 5 11 10 0 6 -2 10 -4 10 -3 0
-8 -4 -11 -10z"/>
<path d="M5021 576 c2 -2 22 -6 44 -9 27 -4 35 -3 25 3 -14 9 -79 15 -69 6z"/>
<path d="M1718 547 c-5 -10 -8 -28 -8 -40 0 -12 -7 -40 -15 -62 -8 -22 -14
-67 -14 -100 l1 -60 13 40 c8 22 14 63 14 92 1 28 6 53 12 55 6 2 9 23 7 48
-2 32 -5 40 -10 27z"/>
<path d="M6781 510 c-1 -36 -22 -104 -34 -116 -4 -4 -7 -22 -7 -39 0 -18 -7
-65 -16 -105 -22 -94 -30 -103 -196 -211 -27 -17 -48 -33 -48 -35 0 -2 49 -4
109 -4 l109 0 11 65 c6 36 16 95 21 132 22 141 31 189 46 235 9 26 14 62 11
80 l-4 33 -2 -35z"/>
<path d="M3861 504 c0 -11 3 -14 6 -6 3 7 2 16 -1 19 -3 4 -6 -2 -5 -13z"/>
<path d="M7756 505 c-9 -26 -7 -32 5 -12 6 10 9 21 6 23 -2 3 -7 -2 -11 -11z"/>
<path d="M7652 359 c-13 -16 -19 -29 -14 -29 9 0 33 25 46 48 14 23 -9 11 -32
-19z"/>
<path d="M8232 360 c0 -14 2 -19 5 -12 2 6 2 18 0 25 -3 6 -5 1 -5 -13z"/>
<path d="M7557 263 c-9 -43 -20 -94 -22 -113 l-6 -35 16 40 c9 22 22 51 30 65
8 14 23 42 35 63 l21 38 -21 -11 c-17 -9 -22 -8 -28 10 -6 15 -12 2 -25 -57z"/>
<path d="M1667 231 c-4 -18 -7 -48 -6 -65 1 -26 3 -24 10 14 5 25 8 54 6 65
-2 14 -5 9 -10 -14z"/>
<path d="M3922 180 c0 -19 2 -27 5 -17 2 9 2 25 0 35 -3 9 -5 1 -5 -18z"/>
<path d="M0 91 l0 -91 102 0 101 0 -44 40 c-24 22 -57 51 -73 63 -16 12 -42
35 -58 51 l-28 28 0 -91z"/>
<path d="M5053 144 c-3 -10 -10 -21 -14 -24 -11 -8 -69 -103 -69 -113 0 -12
26 22 69 91 19 29 31 55 28 59 -4 3 -10 -3 -14 -13z"/>
<path d="M8311 144 c0 -11 3 -14 6 -6 3 7 2 16 -1 19 -3 4 -6 -2 -5 -13z"/>
<path d="M7516 84 c-7 -19 -8 -89 -1 -82 8 7 18 98 12 98 -3 0 -8 -7 -11 -16z"/>
<path d="M1893 45 c0 -27 2 -38 4 -22 2 15 2 37 0 50 -2 12 -4 0 -4 -28z"/>
<path d="M3941 74 c0 -11 3 -14 6 -6 3 7 2 16 -1 19 -3 4 -6 -2 -5 -13z"/>
<path d="M437 33 c-20 -8 -37 -19 -37 -24 0 -5 39 -9 88 -9 l87 0 -25 20 c-14
10 -26 17 -28 15 -2 -2 -14 0 -26 4 -13 6 -35 3 -59 -6z"/>
</g>
</svg>
